<?xml version="1.0" encoding="utf-8"?>
<!-- Generator: Adobe Illustrator 25.1.0, SVG Export Plug-In . SVG Version: 6.00 Build 0)  -->
<svg version="1.1" id="Layer_1" xmlns="http://www.w3.org/2000/svg" xmlns:xlink="http://www.w3.org/1999/xlink" x="0px" y="0px"
	 width="548.86px" height="544.97px" viewBox="0 0 548.86 544.97" style="enable-background:new 0 0 548.86 544.97;"
	 xml:space="preserve">
<style type="text/css">
	.st0{fill:#FFFFFF;}
</style>
<path class="st0" d="M536.01,498.37l-129-129c-2.3-2.3-5.3-3.5-8.5-3.5h-10.3c34.3-37.1,55.3-86.6,55.3-141.1
	c0-114.9-93.1-208-208-208s-208,93.1-208,208s93.1,208,208,208c54.5,0,104-21,141.1-55.2v10.2c0,3.2,1.3,6.2,3.5,8.5l129,129
	c4.7,4.7,12.3,4.7,17,0l9.9-9.9C540.71,510.67,540.71,503.07,536.01,498.37z M235.51,400.77c-97.3,0-176-78.7-176-176
	s78.7-176,176-176s176,78.7,176,176S332.81,400.77,235.51,400.77z"/>
</svg>
